<svg xmlns="http://www.w3.org/2000/svg" viewBox="0 0 40 40" fill="none">
  <defs>
    <radialGradient id="tile" cx="30%" cy="25%" r="78%">
      <stop offset="0" stop-color="#FFEFB0"/>
      <stop offset="0.38" stop-color="#F7C948"/>
      <stop offset="1" stop-color="#B87407"/>
    </radialGradient>
    <linearGradient id="ink" x1="20" y1="5" x2="20" y2="34">
      <stop offset="0" stop-color="#2a1a00"/>
      <stop offset="1" stop-color="#0a0700"/>
    </linearGradient>
    <linearGradient id="rim" x1="12" y1="6" x2="28" y2="10" gradientUnits="userSpaceOnUse">
      <stop offset="0" stop-color="#3a2800" stop-opacity="0.6"/>
      <stop offset="0.5" stop-color="#3a2800" stop-opacity="0"/>
      <stop offset="1" stop-color="#3a2800" stop-opacity="0.6"/>
    </linearGradient>
  </defs>
  <rect width="40" height="40" rx="11" fill="url(#tile)"/>
  <!-- Soft inner edge for depth -->
  <rect x="0.5" y="0.5" width="39" height="39" rx="10.5" fill="none" stroke="rgba(255,255,255,0.35)" stroke-width="1"/>
  <rect x="1.5" y="1.5" width="37" height="37" rx="9.5" fill="none" stroke="rgba(0,0,0,0.08)" stroke-width="1"/>
  <!-- Chalice -->
  <path d="M12 6.5 L28 6.5 Q28 7 27.8 7.6 Q27.2 15.5 22 19 L22 27 L27 27 Q27.5 27 27.5 28 L27.5 30.5 Q27.5 31.5 26.5 31.5 L13.5 31.5 Q12.5 31.5 12.5 30.5 L12.5 28 Q12.5 27 13 27 L18 27 L18 19 Q12.8 15.5 12.2 7.6 Q12 7 12 6.5 Z" fill="url(#ink)"/>
  <!-- Rim shadow line -->
  <path d="M12.2 7.2 Q20 8.4 27.8 7.2" fill="none" stroke="url(#rim)" stroke-width="0.8" stroke-linecap="round"/>
  <!-- Interior highlight -->
  <path d="M14.5 9.5 Q15 14 17.5 16.5 L17.5 19 Q14 17 13 12 Z" fill="#fff8d8" opacity="0.38"/>
  <!-- Secondary highlight -->
  <path d="M20 16 Q21 17 22 17 L22 19 Q20.5 18.5 20 17 Z" fill="#fff8d8" opacity="0.2"/>
  <!-- Editorial period -->
  <circle cx="32.5" cy="32.5" r="2" fill="#1a0f00"/>
  <circle cx="32" cy="32" r="0.6" fill="#F7C948" opacity="0.7"/>
</svg>
