<svg xmlns="http://www.w3.org/2000/svg" viewBox="0 0 1200 630" fill="none">
  <defs>
    <linearGradient id="bg" x1="0" y1="0" x2="1200" y2="630">
      <stop offset="0" stop-color="#050506"/>
      <stop offset="1" stop-color="#16161b"/>
    </linearGradient>
    <linearGradient id="tile" x1="0" y1="0" x2="120" y2="120">
      <stop offset="0" stop-color="#FBE287"/>
      <stop offset="0.45" stop-color="#F7C948"/>
      <stop offset="1" stop-color="#E8A317"/>
    </linearGradient>
    <linearGradient id="chal" x1="0" y1="0" x2="0" y2="40">
      <stop offset="0" stop-color="#1a0f00"/>
      <stop offset="1" stop-color="#0a0700"/>
    </linearGradient>
    <radialGradient id="glow" cx="50%" cy="40%" r="50%">
      <stop offset="0" stop-color="#F7C948" stop-opacity="0.25"/>
      <stop offset="1" stop-color="#F7C948" stop-opacity="0"/>
    </radialGradient>
  </defs>
  <rect width="1200" height="630" fill="url(#bg)"/>
  <ellipse cx="600" cy="300" rx="640" ry="320" fill="url(#glow)"/>

  <rect x="88" y="80" width="104" height="104" rx="28" fill="url(#tile)"/>
  <g transform="translate(88 80) scale(2.6)">
    <path d="M12 6 L28 6 L28 10 Q28 18 22 21 L22 30 L26 30 L26 33 L14 33 L14 30 L18 30 L18 21 Q12 18 12 10 Z" fill="url(#chal)"/>
    <circle cx="32" cy="32" r="2" fill="#1a0f00"/>
  </g>

  <text x="220" y="125" font-family="Inter, system-ui, sans-serif" font-weight="700" font-size="16" fill="#F7C948" letter-spacing="0.28em">TRADING FLOOR / 2026</text>
  <text x="220" y="160" font-family="Inter, system-ui, sans-serif" font-weight="500" font-size="16" fill="#9898a5" letter-spacing="0.06em">Pokémon · Sports · Comics · Sneakers · Watches · Vinyl</text>

  <text x="88" y="305" font-family="Fraunces, Georgia, serif" font-weight="700" font-size="160" fill="#F5F5F7" letter-spacing="-0.04em">Grail.</text>
  <text x="88" y="435" font-family="Fraunces, Georgia, serif" font-weight="400" font-style="italic" font-size="80" fill="#F7C948" letter-spacing="-0.02em">Where collectors</text>
  <text x="88" y="525" font-family="Fraunces, Georgia, serif" font-weight="400" font-style="italic" font-size="80" fill="#F7C948" letter-spacing="-0.02em">meet their grails.</text>

  <g font-family="Inter, system-ui, sans-serif" fill="#ECECEC">
    <text x="88" y="585" font-size="14" fill="#6A6A78" letter-spacing="0.22em" font-weight="700">CARDS INDEXED</text>
    <text x="88" y="612" font-size="24" font-weight="800">20,193</text>
    <text x="300" y="585" font-size="14" fill="#6A6A78" letter-spacing="0.22em" font-weight="700">CATEGORIES</text>
    <text x="300" y="612" font-size="24" font-weight="800">6 &amp; counting</text>
    <text x="500" y="585" font-size="14" fill="#6A6A78" letter-spacing="0.22em" font-weight="700">FLAT FEE</text>
    <text x="500" y="612" font-size="24" font-weight="800">$1–6</text>
    <text x="640" y="585" font-size="14" fill="#6A6A78" letter-spacing="0.22em" font-weight="700">ON CASH</text>
    <text x="640" y="612" font-size="24" font-weight="800">2%</text>
  </g>
</svg>
